#!OML:ASF F:\VICON\USERDATA\INSTALL\rory3\rory3.ASF
:FULLY-SPECIFIED
:DEGREES
2514
root 1.89125 15.7438 -12.9154 -541.776 -75.3951 540.367
lowerback 17.6056 1.52719 -5.75444
upperback -0.923062 1.06965 2.67512
thorax -11.1313 0.928445 5.96929
lowerneck -11.8974 -6.53997 -3.81264
upperneck 18.1559 -9.55921 5.12105
head 8.00861 -4.42833 1.28388
rclavicle -3.08613e-014 7.95139e-015
rhumerus 19.3705 67.4459 -60.3507
rradius 20.5206
rwrist -6.36762
rhand 2.59785 16.6139
rfingers 7.12502
rthumb 28.0762 -11.305
lclavicle -3.08613e-014 7.95139e-015
lhumerus -17.416 -58.0846 88.2677
lradius 27.1676
lwrist 28.4416
lhand -0.907655 24.6609
lfingers 7.12502
lthumb 24.7207 53.0837
rfemur -20.3308 14.6504 6.41409
rtibia 33.7574
rfoot -14.5894 -0.645904
rtoes -40.3346
lfemur -22.6986 8.08709 -23.7002
ltibia 48.6588
lfoot -20.4407 4.73961
ltoes 0.984237
2515
root 1.89263 15.736 -12.8979 -542.198 -75.2586 540.798
lowerback 17.6802 1.52933 -5.56197
upperback -0.94619 1.10548 2.6402
thorax -11.1997 0.935425 5.80955
lowerneck -12.0583 -6.63373 -4.24219
upperneck 18.3146 -9.70189 5.53379
head 8.14133 -4.48097 1.46262
rclavicle 1.58779e-014 -2.50469e-014
rhumerus 20.2157 67.8269 -59.4445
rradius 20.7604
rwrist -7.032
rhand 2.45509 16.4654
rfingers 7.12502
rthumb 27.9397 -11.4758
lclavicle 1.58779e-014 -2.50469e-014
lhumerus -17.2468 -57.9705 88.1781
lradius 26.9244
lwrist 28.1674
lhand -0.366543 22.4051
lfingers 7.12502
lthumb 25.2392 50.7559
rfemur -20.4044 14.4701 6.4206
rtibia 33.7433
rfoot -14.3992 -0.413808
rtoes -37.3775
lfemur -22.7915 8.40658 -23.6264
ltibia 48.7931
lfoot -20.4351 4.68355
ltoes -0.363257
2516
root 1.89032 15.7284 -12.8772 -542.416 -75.0024 540.898
lowerback 17.7858 1.5304 -5.44204
upperback -0.919662 1.12336 2.61701
thorax -11.2292 0.935332 5.70962
lowerneck -12.0857 -6.57866 -4.12756
upperneck 18.3281 -9.61858 5.39636
head 8.13319 -4.44579 1.40823
rclavicle -2.045e-014 -2.78299e-015
rhumerus 21.3695 68.3304 -58.2336
rradius 21.0338
rwrist -7.76208
rhand 2.4326 16.1106
rfingers 7.12502
rthumb 27.9182 -11.8341
lclavicle -2.045e-014 -2.78299e-015
lhumerus -17.5499 -58.4156 88.332
lradius 27.1001
lwrist 29.0304
lhand -1.04395 21.9734
lfingers 7.12502
lthumb 24.5901 50.414
rfemur -20.3656 14.3528 6.40745
rtibia 33.7491
rfoot -14.2695 -0.714302
rtoes -37.4159
lfemur -22.6726 8.82126 -23.618
ltibia 48.845
lfoot -20.5547 4.53118
ltoes -0.948141
2517
root 1.88926 15.7223 -12.8528 -542.219 -74.6251 540.632
lowerback 17.805 1.53984 -5.50479
upperback -0.903864 1.124 2.64562
thorax -11.225 0.939643 5.77799
lowerneck -11.8227 -6.47282 -3.72574
upperneck 18.082 -9.44234 4.94558
head 7.95149 -4.38614 1.22988
rclavicle -3.72721e-014 -1.11319e-014
rhumerus 23.0359 69.1154 -56.5093
rradius 21.2654
rwrist -8.3655
rhand 2.1768 15.9165
rfingers 7.12502
rthumb 27.6737 -12.0677
lclavicle -3.72721e-014 -1.11319e-014
lhumerus -17.8387 -58.9291 88.6819
lradius 28.085
lwrist 30.5432
lhand -2.41992 27.7548
lfingers 7.12502
lthumb 23.2706 56.3686
rfemur -20.4899 14.2644 6.28826
rtibia 33.7912
rfoot -14.1968 -1.32691
rtoes -40.6391
lfemur -22.6042 9.10621 -23.7136
ltibia 48.8981
lfoot -20.7168 4.36042
ltoes -0.175694
2518
root 1.89014 15.7265 -12.8346 -542.143 -74.2974 540.543
lowerback 17.7497 1.5536 -5.65482
upperback -0.85318 1.11632 2.68209
thorax -11.1397 0.941587 5.90708
lowerneck -11.6583 -6.40554 -3.40604
upperneck 17.8607 -9.34172 4.68046
head 7.81483 -4.34761 1.11308
rclavicle 4.12478e-015 -1.66979e-014
rhumerus 24.4924 69.4637 -55.0901
rradius 21.4684
rwrist -8.52873
rhand 2.18356 15.7522
rfingers 7.12502
rthumb 27.6801 -12.2309
lclavicle 4.12478e-015 -1.66979e-014
lhumerus -17.9287 -59.2841 88.7794
lradius 28.7456
lwrist 31.7627
lhand -3.49169 31.0439
lfingers 7.12502
lthumb 22.242 59.7841
rfemur -20.6481 14.95 5.93531
rtibia 33.8598
rfoot -14.2036 0.964126
rtoes -27.6764
lfemur -22.6149 9.37669 -23.7939
ltibia 48.9796
lfoot -20.8081 4.57679
ltoes -0.332285
2519
root 1.89389 15.714 -12.8234 -542.58 -74.124 540.981
lowerback 17.7616 1.56361 -5.67086
upperback -0.81655 1.13198 2.75422
thorax -11.1099 0.949855 5.99302
lowerneck -11.723 -6.37052 -3.26892
upperneck 17.8381 -9.29624 4.59025
head 7.8057 -4.32368 1.06538
rclavicle 1.41137e-014 -4.77083e-015
rhumerus 25.3902 69.4578 -54.1962
rradius 21.6365
rwrist -8.53094
rhand 2.32707 15.6454
rfingers 7.12502
rthumb 27.8173 -12.3157
lclavicle 1.41137e-014 -4.77083e-015
lhumerus -17.6403 -58.9777 88.4925
lradius 28.2589
lwrist 31.0298
lhand -2.63325 29.0408
lfingers 7.12502
lthumb 23.0659 57.6803
rfemur -20.7737 14.9727 6.06823
rtibia 33.9625
rfoot -14.1441 0.43163
rtoes -29.612
lfemur -22.7473 9.81431 -23.6853
ltibia 49.1255
lfoot -20.7662 4.55431
ltoes -1.00943
2520
root 1.89804 15.6894 -12.8092 -543.13 -73.9164 541.546
lowerback 17.7979 1.60801 -5.4703
upperback -0.790993 1.22754 2.72216
thorax -11.1096 0.9805 5.81428
lowerneck -11.8153 -6.38021 -3.10302
upperneck 17.8414 -9.34722 4.62436
head 7.81927 -4.33211 1.04123
rclavicle 1.63252e-014 -4.21423e-014
rhumerus 25.9029 69.3031 -53.6914
rradius 21.8685
rwrist -8.74393
rhand 2.49877 15.6542
rfingers 7.12502
rthumb 27.9815 -12.2802
lclavicle 1.63252e-014 -4.21423e-014
lhumerus -17.1184 -58.5682 87.8956
lradius 27.5556
lwrist 29.8378
lhand -0.982793 25.9579
lfingers 7.12502
lthumb 24.6487 54.3906
rfemur -20.9345 14.2153 6.54819
rtibia 34.0654
rfoot -13.7115 -3.14914
rtoes -46.9375
lfemur -22.9465 10.1583 -23.5975
ltibia 49.3549
lfoot -20.6653 5.11682
ltoes -3.52963
2521
root 1.89799 15.6904 -12.7891 -543.209 -73.7304 541.607
lowerback 17.8796 1.70331 -5.20625
upperback -0.820724 1.38711 2.52854
thorax -11.199 1.03687 5.40029
lowerneck -11.7303 -6.52028 -2.87535
upperneck 17.8008 -9.60697 4.71081
head 7.79508 -4.43717 1.00747
rclavicle -2.08227e-014 1.59028e-014
rhumerus 25.5472 68.9561 -54.0384
rradius 22.0724
rwrist -8.91496
rhand 2.50184 15.8266
rfingers 7.12502
rthumb 27.9844 -12.1073
lclavicle -2.08227e-014 1.59028e-014
lhumerus -16.8656 -59.0547 87.5703
lradius 27.4031
lwrist 29.8014
lhand -0.0603452 25.0792
lfingers 7.12502
lthumb 25.5326 53.3883
rfemur -21.0413 14.5898 6.22855
rtibia 34.128
rfoot -14.1006 -0.581731
rtoes -35.657
lfemur -22.9591 10.1536 -23.7105
ltibia 49.4597
lfoot -20.6419 5.93499
ltoes -5.42898
2522
root 1.89758 15.6834 -12.7687 -542.569 -73.5156 540.936
lowerback 17.9822 1.82857 -5.2318
upperback -0.880137 1.52614 2.35194
thorax -11.3391 1.10398 5.17852
lowerneck -11.6631 -6.61676 -2.62355
upperneck 17.7986 -9.78743 4.67483
head 7.77535 -4.51313 0.938299
rclavicle -2.93207e-015 9.93923e-015
rhumerus 25.741 69.0032 -53.7307
rradius 22.3271
rwrist -9.42538
rhand 2.35436 16.0362
rfingers 7.12502
rthumb 27.8434 -11.9206
lclavicle -2.93207e-015 9.93923e-015
lhumerus -16.9383 -59.5617 87.612
lradius 27.4572
lwrist 30.1074
lhand 0.00627888 24.9808
lfingers 7.12502
lthumb 25.5964 53.2807
rfemur -21.1535 13.891 6.14767
rtibia 34.1797
rfoot -13.7992 -2.48856
rtoes -45.3725
lfemur -23.0021 10.0624 -23.9118
ltibia 49.5995
lfoot -21.0653 4.96512
ltoes 0.831713
2523
root 1.89702 15.6868 -12.75 -542.678 -73.2413 541.019
lowerback 18.0419 1.86513 -5.26051
upperback -0.886681 1.56849 2.38053
thorax -11.3887 1.12828 5.21535
lowerneck -11.5975 -6.58989 -2.389
upperneck 17.722 -9.73436 4.40926
head 7.7101 -4.49923 0.825321
rclavicle 2.98177e-016 -1.07344e-014
rhumerus 26.6148 69.2857 -52.8275
rradius 22.6117
rwrist -9.88379
rhand 2.17246 15.76
rfingers 7.12502
rthumb 27.6695 -12.2249
lclavicle 2.98177e-016 -1.07344e-014
lhumerus -16.9665 -59.7617 87.7025
lradius 27.4374
lwrist 30.3983
lhand -0.354535 25.2051
lfingers 7.12502
lthumb 25.2507 53.5542
rfemur -21.2747 14.3912 5.86047
rtibia 34.2171
rfoot -13.9163 -0.715356
rtoes -35.4143
lfemur -22.9466 10.2991 -23.9125
ltibia 49.5838
lfoot -21.2314 4.70622
ltoes 2.00731
2524
root 1.89833 15.6707 -12.7355 -543.049 -72.9929 541.439
lowerback 17.9628 1.85409 -5.28035
upperback -0.841244 1.56143 2.4643
thorax -11.2944 1.12474 5.32265
lowerneck -11.6245 -6.62506 -2.57848
upperneck 17.6264 -9.75476 4.50558
head 7.6988 -4.51199 0.884618
rclavicle 1.50579e-014 1.19271e-015
rhumerus 28.4632 69.778 -50.9895
rradius 22.8922
rwrist -10.467
rhand 1.9285 15.0523
rfingers 7.12502
rthumb 27.4362 -12.9697
lclavicle 1.50579e-014 1.19271e-015
lhumerus -16.7493 -59.8439 87.5613
lradius 27.5287
lwrist 30.717
lhand -0.782204 25.5863
lfingers 7.12502
lthumb 24.8409 53.9926
rfemur -21.496 13.8532 6.15923
rtibia 34.2956
rfoot -13.5072 -3.04022
rtoes -45.5206
lfemur -23.0627 10.2394 -23.9063
ltibia 49.6516
lfoot -21.111 5.58225
ltoes -1.52776
